<?xml version="1.0" encoding="UTF-8"?>
<svg xmlns="http://www.w3.org/2000/svg" viewBox="0 0 500 500">
  <defs>
    <style>
      .cls-1 {
        fill: #454da1;
      }
    </style>
  </defs>
  <g id="Layer_3" data-name="Layer 3">
    <g>
      <path class="cls-1" d="M94.68,402.33v15h-6.06v-46.88h13.3c3.77.51,6.95,2.06,9.55,4.66,3.11,3.12,4.66,6.88,4.66,11.25s-1.55,8.18-4.66,11.29-6.86,4.67-11.25,4.67h-5.54ZM94.68,376.55v19.69h5.54c2.7,0,5-.96,6.93-2.89,1.92-1.92,2.89-4.25,2.89-6.99s-.96-5.03-2.89-6.94c-1.92-1.91-4.23-2.87-6.93-2.87h-5.54Z"/>
      <path class="cls-1" d="M128.81,370.46v46.88h-6.06v-46.88h6.06Z"/>
      <path class="cls-1" d="M195.08,370.46l17.05,46.88h-6.45l-6.04-16.58h-12.42l-6.01,16.58h-6.47l17.05-46.88h3.28ZM197.46,394.69l-4.01-10.99-3.98,10.99h8Z"/>
      <path class="cls-1" d="M217.99,417.33v-46.88h6.06v40.78h16.76v6.09h-22.82Z"/>
      <path class="cls-1" d="M257.84,398.52l-16.2-28.07h6.97l12.25,21.21,12.28-21.21h7l-16.23,28.07v18.81h-6.06v-18.81Z"/>
      <path class="cls-1" d="M300.08,376.52v40.81h-6.09v-40.81h-10.93v-6.06h27.95v6.06h-10.93Z"/>
      <path class="cls-1" d="M323.52,370.46v46.88h-6.06v-46.88h6.06Z"/>
      <path class="cls-1" d="M369.19,406.17l4.54,4.07c-5.55,5.06-11.42,7.59-17.61,7.59-6.62,0-12.27-2.33-16.93-7s-7-10.31-7-16.93,2.33-12.25,7-16.93,10.31-7.03,16.93-7.03c6.19,0,12.06,2.53,17.61,7.59l-4.54,4.13c-4.18-3.71-8.54-5.57-13.07-5.57-4.9,0-9.1,1.74-12.58,5.21s-5.23,7.68-5.23,12.6,1.74,9.15,5.23,12.63,7.68,5.21,12.58,5.21c4.53,0,8.89-1.86,13.07-5.57Z"/>
      <path class="cls-1" d="M397.26,370.46l17.05,46.88h-6.45l-6.04-16.58h-12.42l-6.01,16.58h-6.47l17.05-46.88h3.28ZM399.63,394.69l-4.01-10.99-3.98,10.99h8Z"/>
    </g>
  </g>
  <g id="Layer_4" data-name="Layer 4">
    <g>
      <rect class="cls-1" x="149.57" y="389.21" width="7.24" height="9.38"/>
      <rect class="cls-1" x="142.33" y="379.83" width="7.24" height="9.38"/>
      <rect class="cls-1" x="135.1" y="370.55" width="7.24" height="9.28"/>
      <rect class="cls-1" x="164.09" y="407.96" width="7.19" height="9.37"/>
      <rect class="cls-1" x="156.81" y="398.58" width="7.24" height="9.38"/>
      <rect class="cls-1" x="142.33" y="398.58" width="7.24" height="9.38"/>
      <rect class="cls-1" x="135.24" y="407.96" width="7.09" height="9.38"/>
      <rect class="cls-1" x="164.04" y="370.55" width="7.24" height="9.28"/>
      <rect class="cls-1" x="156.81" y="379.83" width="7.24" height="9.38"/>
    </g>
  </g>
  <g id="Layer_1" data-name="Layer 1">
    <g>
      <polygon class="cls-1" points="232.21 301.53 198.75 301.56 198.03 118.93 231.49 118.9 232.21 301.53"/>
      <g>
        <polygon class="cls-1" points="298.33 142.79 298.33 118.9 248.33 118.9 248.33 166.67 273.33 166.67 273.33 142.79 298.33 142.79"/>
        <polygon class="cls-1" points="273.33 166.67 248.33 166.67 248.33 214.43 298.33 214.43 298.33 190.55 273.33 190.55 273.33 166.67"/>
        <polygon class="cls-1" points="294.33 142.79 319.33 142.79 319.33 166.67 344.33 166.67 344.33 166.67 319.33 166.67 319.33 190.55 294.33 190.55 294.33 142.79"/>
      </g>
    </g>
  </g>
</svg>